# xmcd
#
# Track frame offsets:
#	150
#	14807
#	33997
#	47790
#	75540
#	90102
#	114354
#	133132
#	154587
#	170202
#	190512
#	215512
#	230455
#	254605
#	267972
#	289060
#
# Disc length: 4018 seconds
#
# Revision: 0
# Processed by: cddbd v1.5.2PL0 Copyright (c) Steve Scherf et al.
# Submitted via: EasyCDDAExtractor 16.0.8.1
#
DISCID=da0fb010
DTITLE=Dimension Latina - 25 Años De Historia Vol. 3
DYEAR=2000
DGENRE=Salsa
TTITLE0=Tiene Coimbre
TTITLE1=Tu No Sabes Na
TTITLE2=Pensando En Ti
TTITLE3=Me Dejo
TTITLE4=A Barranquilla
TTITLE5=Juanita Morel
TTITLE6=Nuestra Tierra
TTITLE7=El Manicero
TTITLE8=El Mala Suerte
TTITLE9=Dolor Cobarde
TTITLE10=Bravo De Verdad
TTITLE11=Que Bailen To's
TTITLE12=Calculadora
TTITLE13=Tata Li Baba
TTITLE14=Detalles
TTITLE15=Maria Espejo
EXTD=
EXTT0=
EXTT1=
EXTT2=
EXTT3=
EXTT4=
EXTT5=
EXTT6=
EXTT7=
EXTT8=
EXTT9=
EXTT10=
EXTT11=
EXTT12=
EXTT13=
EXTT14=
EXTT15=
PLAYORDER=
